# xmcd
#
# Track frame offsets: 
#        150
#        16062
#        28983
#        46302
#        59764
#        77761
#        88068
#        101598
#        115242
#        131745
#        149182
#        162787
#        176945
#        189603
#        204663
#        221271
#        237111
#        253256
#        271953
#
# Disc length: 3827 seconds
#
# Revision: 3
# Processed by: cddbd v1.5.2PL0 Copyright (c) Steve Scherf et al.
# Submitted via: ExactAudioCopyFreeDBPlugin 1.0
#
DISCID=200ef113
DTITLE=Various Artist - Holland Dozier Holland:  The Complete 45s Col
DTITLE=lection (Invictus, Hot Wax, Music Merchant), 1969-1977 [Harmles
DTITLE=s box set]
DYEAR=2014
DGENRE=Soul
TTITLE0=Melvin Davis - You Made Me Over
TTITLE1=Lee Charles - Sittin' on a Time Bomb (Waiting for the Hurt to 
TTITLE1=Come)
TTITLE2=The Chairmen of the Board - Life and Death (Part 2)
TTITLE3=Laura Lee - I Need It Just as Bad as You
TTITLE4=Brian Holland - I'm So Glad (Part I)
TTITLE5=Natural High - Bump Your Lady (Part I)
TTITLE6=The Chairmen of the Board - Everybody Party All Night
TTITLE7=Tyrone Edwards - Can't Get Enough of You
TTITLE8=The Chairmen of the Board - Let's Have Some Fun
TTITLE9=Brian Holland - Let's Get Together
TTITLE10=Laura Lee - Don't Leave Me Starving for Your Love
TTITLE11=The Hi Lites - That's Love (vocal)
TTITLE12=Earl English - Wanting You (vocal)
TTITLE13=The Chairmen of the Board - Skin I'm In
TTITLE14=Eloise Laws - Touch Me
TTITLE15=The Chairmen of the Board - You've Got Extra Added Power in Y
TTITLE15=our Love (ft Prince Harold)
TTITLE16=New York Port Authority - I Got It (Part 1)
TTITLE17=Eloise Laws - Love Goes Deeper Than That
TTITLE18=New York Port Authority - I Don't Want to Work Today
EXTD=
EXTT0=
EXTT1=
EXTT2=
EXTT3=
EXTT4=
EXTT5=
EXTT6=
EXTT7=
EXTT8=
EXTT9=
EXTT10=
EXTT11=
EXTT12=
EXTT13=
EXTT14=
EXTT15=
EXTT16=
EXTT17=
EXTT18=
PLAYORDER=
